<svg xmlns="http://www.w3.org/2000/svg" version="1.1" xmlns:xlink="http://www.w3.org/1999/xlink" width="512" height="512" x="0" y="0" viewBox="0 0 512 512.0012" style="enable-background:new 0 0 512 512" xml:space="preserve" class=""><g><path xmlns="http://www.w3.org/2000/svg" d="m244.230469 246.527344c17.546875-17.546875 17.546875-46.09375 0-63.636719-17.542969-17.546875-46.09375-17.542969-63.636719 0-17.546875 17.542969-17.546875 46.089844 0 63.636719 17.542969 17.542968 46.089844 17.546875 63.636719 0zm-42.425781-42.425782c5.851562-5.847656 15.367187-5.847656 21.214843 0 5.847657 5.847657 5.847657 15.363282 0 21.210938-5.847656 5.847656-15.363281 5.851562-21.214843 0-5.847657-5.847656-5.847657-15.363281 0-21.210938zm0 0" fill="#000000" data-original="#000000" class=""></path><path xmlns="http://www.w3.org/2000/svg" d="m413.929688 246.527344c17.542968-17.546875 17.542968-46.09375 0-63.636719-17.585938-17.585937-46.050782-17.589844-63.636719 0-17.546875 17.542969-17.546875 46.089844 0 63.636719 17.585937 17.585937 46.050781 17.585937 63.636719 0zm-42.425782-42.425782c5.863282-5.859374 15.351563-5.863281 21.210938 0 5.851562 5.847657 5.851562 15.363282 0 21.210938-5.859375 5.863281-15.347656 5.863281-21.210938 0-5.847656-5.847656-5.847656-15.363281 0-21.210938zm0 0" fill="#000000" data-original="#000000" class=""></path><path xmlns="http://www.w3.org/2000/svg" d="m303.765625 323.710938c1.625 8.132812 9.535156 13.390624 17.648437 11.765624 8.125-1.621093 13.394532-9.523437 11.769532-17.648437l-42.425782-212.125c-1.625-8.121094-9.527343-13.390625-17.648437-11.765625-8.125 1.625-13.390625 9.527344-11.765625 17.648438zm0 0" fill="#000000" data-original="#000000" class=""></path><path xmlns="http://www.w3.org/2000/svg" d="m182.859375 498.8125c17.582031 17.582031 46.046875 17.585938 63.636719 0l21.210937-21.214844c5.855469-5.851562 5.855469-15.355468 0-21.210937-5.863281-5.863281-5.863281-15.347657 0-21.214844 5.863281-5.859375 15.347657-5.863281 21.210938 0 5.855469 5.855469 15.355469 5.859375 21.214843 0l188.644532-188.644531c17.546875-17.546875 17.546875-46.09375 0-63.636719l-169.695313-169.699219c-17.585937-17.585937-46.050781-17.589844-63.640625 0l-188.644531 188.644532c-2.8125 2.816406-4.394531 6.628906-4.394531 10.605468 0 3.980469 1.582031 7.792969 4.394531 10.609375 5.859375 5.859375 5.863281 15.347657 0 21.210938-5.847656 5.847656-15.363281 5.847656-21.214844 0-5.855469-5.855469-15.351562-5.855469-21.210937 0l-21.210938 21.210937c-17.546875 17.546875-17.546875 46.09375 0 63.640625zm-148.488281-212.125 12.425781-12.421875c12.226563 5.824219 26.554687 5.816406 38.78125-.007813l12.429687 12.429688c5.859376 5.859375 15.355469 5.859375 21.214844 0 5.855469-5.859375 5.855469-15.355469 0-21.210938l-12.414062-12.414062c5.851562-12.21875 5.835937-26.640625.003906-38.816406l179.84375-179.84375c5.863281-5.859375 15.347656-5.859375 21.210938 0l169.703124 169.703125c5.847657 5.847656 5.847657 15.363281 0 21.210937l-179.84375 179.839844c-12.171874-5.824219-26.59375-5.847656-38.820312.003906l-12.410156-12.410156c-5.855469-5.859375-15.355469-5.859375-21.210938 0-5.859375 5.859375-5.859375 15.355469 0 21.210938l12.410156 12.414062c-5.847656 12.21875-5.832031 26.640625-.003906 38.816406l-12.40625 12.410156c-5.863281 5.859376-15.347656 5.859376-21.214844 0l-169.699218-169.703124c-5.847656-5.847657-5.847656-15.363282 0-21.210938zm0 0" fill="#000000" data-original="#000000" class=""></path><path xmlns="http://www.w3.org/2000/svg" d="m182.859375 371.535156c5.855469 5.859375 15.351563 5.859375 21.210937 0 5.859376-5.855468 5.859376-15.351562 0-21.210937l-42.425781-42.425781c-5.855469-5.855469-15.351562-5.855469-21.210937 0-5.859375 5.859374-5.859375 15.355468 0 21.214843zm0 0" fill="#000000" data-original="#000000" class=""></path></g></svg>