<?xml version="1.0" encoding="utf-8"?>
<!-- Generator: Adobe Illustrator 24.1.2, SVG Export Plug-In . SVG Version: 6.00 Build 0)  -->
<svg version="1.1" id="Layer_1" xmlns="http://www.w3.org/2000/svg" xmlns:xlink="http://www.w3.org/1999/xlink" x="0px" y="0px"
	 viewBox="0 0 456.5 456.5" style="enable-background:new 0 0 456.5 456.5;" xml:space="preserve">
<style type="text/css">
	.st0{fill:#FFCC66;}
	.st1{fill:#FFDE55;}
</style>
<g>
	<rect x="215.3" y="379.3" class="st0" width="26" height="77.2"/>
	<rect x="215.3" class="st0" width="26" height="77.2"/>
	
		<rect x="55.5" y="349.4" transform="matrix(0.7071 -0.7071 0.7071 0.7071 -228.6555 172.7227)" class="st0" width="77.2" height="26"/>
	
		<rect x="323.8" y="81.2" transform="matrix(0.7071 -0.7071 0.7071 0.7071 39.5501 283.817)" class="st0" width="77.2" height="26"/>
	<rect y="215.3" class="st0" width="77.2" height="26"/>
	<rect x="379.3" y="215.3" class="st0" width="77.2" height="26"/>
	
		<rect x="81.2" y="55.5" transform="matrix(0.7071 -0.7071 0.7071 0.7071 -39.0054 94.1677)" class="st0" width="26" height="77.2"/>
	
		<rect x="349.4" y="323.8" transform="matrix(0.7071 -0.7071 0.7071 0.7071 -150.0995 362.3725)" class="st0" width="26" height="77.2"/>
	<circle class="st0" cx="228.3" cy="228.3" r="124"/>
	<circle class="st1" cx="228.3" cy="228.3" r="95.1"/>
</g>
</svg>
